<svg xmlns="http://www.w3.org/2000/svg" viewBox="0 0 1200 630" role="img" aria-label="株Navi">
  <rect width="1200" height="630" fill="#0f172a"/>
  <path d="M0 510C155 470 250 535 376 450c138-93 213-79 330-25 122 56 241 9 494-196v401H0Z" fill="#0f766e" opacity=".34"/>
  <path d="M96 464 274 336l122 76 168-172 132 92 304-246" fill="none" stroke="#22c55e" stroke-width="18" stroke-linecap="round" stroke-linejoin="round"/>
  <g opacity=".9">
    <path d="M230 218v268" stroke="#38bdf8" stroke-width="10" stroke-linecap="round"/>
    <rect x="206" y="282" width="48" height="106" rx="10" fill="#38bdf8"/>
    <path d="M466 154v332" stroke="#ef4444" stroke-width="10" stroke-linecap="round"/>
    <rect x="442" y="214" width="48" height="142" rx="10" fill="#ef4444"/>
    <path d="M704 132v354" stroke="#22c55e" stroke-width="10" stroke-linecap="round"/>
    <rect x="680" y="210" width="48" height="170" rx="10" fill="#22c55e"/>
  </g>
  <text x="88" y="126" fill="#f8fafc" font-family="system-ui, -apple-system, BlinkMacSystemFont, 'Segoe UI', sans-serif" font-size="72" font-weight="800">株Navi</text>
  <text x="90" y="190" fill="#cbd5e1" font-family="system-ui, -apple-system, BlinkMacSystemFont, 'Segoe UI', sans-serif" font-size="30" font-weight="600">日本株の市況・チャート・ニュースをひと目で</text>
</svg>
